<svg xmlns="http://www.w3.org/2000/svg" version="1.1" xmlns:xlink="http://www.w3.org/1999/xlink" xmlns:svgjs="http://svgjs.dev/svgjs" width="1440" height="560" preserveAspectRatio="none" viewBox="0 0 1440 560"><g mask="url(&quot;#SvgjsMask1028&quot;)" fill="none"><path d="M1700.74 279.02C1567.03 270.16 1483.57 21.78 1233.81 15.82 984.04 9.86 885.88-76.34 766.87-76.79" stroke="rgba(120, 183, 208, 1)" stroke-width="2"></path><path d="M1483.79 90.26C1386.14 89.98 1291.65 20.26 1099.5 20.26 907.36 20.26 907.72 90.28 715.21 90.26 522.7 90.24 431.37-25.93 330.92-27.23" stroke="rgba(120, 183, 208, 1)" stroke-width="2"></path><path d="M1652.86 56.6C1539.38 64.18 1457.48 281.02 1256.89 280.6 1056.3 280.18 991.27-47.98 860.92-72.31" stroke="rgba(120, 183, 208, 1)" stroke-width="2"></path><path d="M1661.63 89.35C1508.17 90.17 1289.7 224.1 1062.68 223.75 835.66 223.4 861.74-24.43 763.21-42.77" stroke="rgba(120, 183, 208, 1)" stroke-width="2"></path><path d="M1711 333.9C1557.55 330.8 1437.91 131.86 1133.1 126.7 828.28 121.54 706.62-52.78 555.19-54.9" stroke="rgba(120, 183, 208, 1)" stroke-width="2"></path></g><defs><mask id="SvgjsMask1028"><rect width="1440" height="560" fill="#ffffff"></rect></mask></defs></svg>