<svg xmlns="http://www.w3.org/2000/svg" xmlns:xlink="http://www.w3.org/1999/xlink" width="500" zoomAndPan="magnify" viewBox="0 0 375 374.999991" height="500" preserveAspectRatio="xMidYMid meet" version="1.0"><defs><g/><clipPath id="d160bb18a0"><path d="M 187.28125 156.234375 L 261.496094 156.234375 L 261.496094 232.445312 L 187.28125 232.445312 Z M 187.28125 156.234375 " clip-rule="nonzero"/></clipPath><clipPath id="5d513d6f1c"><path d="M 113 80.203125 L 188 80.203125 L 188 157 L 113 157 Z M 113 80.203125 " clip-rule="nonzero"/></clipPath><clipPath id="5e96b86426"><path d="M 187.28125 82.382812 L 263.492188 82.382812 L 263.492188 156.597656 L 187.28125 156.597656 Z M 187.28125 82.382812 " clip-rule="nonzero"/></clipPath><clipPath id="c90b021caa"><path d="M 111.246094 156 L 188 156 L 188 231 L 111.246094 231 Z M 111.246094 156 " clip-rule="nonzero"/></clipPath></defs><g clip-path="url(#d160bb18a0)"><path fill="#8bc342" d="M 245.886719 156.324219 C 240.75 166.300781 230.351562 173.144531 218.378906 173.144531 L 204.191406 173.144531 L 204.191406 218.257812 L 201.472656 218.257812 C 196.394531 218.257812 191.601562 217.015625 187.371094 214.839844 L 187.371094 230.191406 C 191.804688 231.652344 196.546875 232.445312 201.472656 232.445312 L 218.378906 232.445312 L 218.378906 187.332031 C 238.367188 187.332031 255.316406 174.328125 261.238281 156.324219 L 245.886719 156.324219 " fill-opacity="1" fill-rule="nonzero"/></g><g clip-path="url(#5d513d6f1c)"><path fill="#e71f69" d="M 156.359375 139.5 L 170.546875 139.5 L 170.546875 94.386719 L 173.265625 94.386719 C 178.34375 94.386719 183.136719 95.628906 187.371094 97.804688 L 187.371094 82.453125 C 182.929688 80.992188 178.191406 80.199219 173.265625 80.199219 L 156.359375 80.199219 L 156.359375 125.3125 C 136.371094 125.3125 119.421875 138.3125 113.5 156.324219 L 128.851562 156.324219 C 133.988281 146.34375 144.386719 139.5 156.359375 139.5 " fill-opacity="1" fill-rule="nonzero"/></g><g clip-path="url(#5e96b86426)"><path fill="#2ba8e0" d="M 204.191406 125.3125 L 204.191406 139.5 L 249.300781 139.5 L 249.300781 142.21875 C 249.300781 147.296875 248.0625 152.089844 245.886719 156.324219 L 261.238281 156.324219 C 262.699219 151.882812 263.492188 147.144531 263.492188 142.21875 L 263.492188 125.3125 L 218.378906 125.3125 C 218.378906 105.324219 205.375 88.375 187.371094 82.453125 L 187.371094 97.804688 C 197.34375 102.941406 204.191406 113.339844 204.191406 125.3125 " fill-opacity="1" fill-rule="nonzero"/></g><g clip-path="url(#c90b021caa)"><path fill="#f0a321" d="M 170.546875 187.332031 L 170.546875 173.144531 L 125.4375 173.144531 L 125.4375 170.425781 C 125.4375 165.347656 126.675781 160.554688 128.851562 156.324219 L 113.5 156.324219 C 112.039062 160.757812 111.246094 165.5 111.246094 170.425781 L 111.246094 187.332031 L 156.359375 187.332031 C 156.359375 207.320312 169.363281 224.273438 187.371094 230.191406 L 187.371094 214.839844 C 177.390625 209.703125 170.546875 199.304688 170.546875 187.332031 " fill-opacity="1" fill-rule="nonzero"/></g><g fill="#e71f69" fill-opacity="1"><g transform="translate(65.180154, 282.818653)"><g><path d="M 1.3125 -19.5 L 13.5 -19.5 L 13.5 -15.703125 L 5.5 -15.703125 L 5.5 -12.1875 L 12.546875 -12.1875 L 12.546875 -8.390625 L 5.5 -8.390625 L 5.5 -3.765625 L 13.5 -3.765625 L 13.5 0 L 1.3125 0 Z M 1.3125 -19.5 "/></g></g></g><g fill="#e71f69" fill-opacity="1"><g transform="translate(81.29087, 282.818653)"><g><path d="M 14.625 -19.5 L 18.78125 -19.5 L 18.78125 0 L 14.828125 0 L 5.4375 -12.734375 L 5.4375 0 L 1.296875 0 L 1.296875 -19.5 L 5.203125 -19.5 L 14.625 -6.6875 Z M 14.625 -19.5 "/></g></g></g><g fill="#e71f69" fill-opacity="1"><g transform="translate(102.652583, 282.818653)"><g><path d="M 9.1875 -19.5 C 10.59375 -19.5 11.835938 -19.238281 12.921875 -18.71875 C 14.003906 -18.207031 14.90625 -17.507812 15.625 -16.625 C 16.351562 -15.75 16.90625 -14.71875 17.28125 -13.53125 C 17.65625 -12.34375 17.84375 -11.078125 17.84375 -9.734375 C 17.84375 -8.378906 17.644531 -7.109375 17.25 -5.921875 C 16.863281 -4.742188 16.320312 -3.710938 15.625 -2.828125 C 14.925781 -1.953125 14.097656 -1.257812 13.140625 -0.75 C 12.191406 -0.25 11.15625 0 10.03125 0 L 1.3125 0 L 1.3125 -19.5 Z M 9.21875 -3.765625 C 10 -3.765625 10.671875 -3.925781 11.234375 -4.25 C 11.796875 -4.570312 12.257812 -5.003906 12.625 -5.546875 C 12.988281 -6.097656 13.253906 -6.734375 13.421875 -7.453125 C 13.597656 -8.171875 13.6875 -8.921875 13.6875 -9.703125 C 13.6875 -10.492188 13.601562 -11.25 13.4375 -11.96875 C 13.28125 -12.695312 13.015625 -13.335938 12.640625 -13.890625 C 12.273438 -14.441406 11.804688 -14.878906 11.234375 -15.203125 C 10.671875 -15.535156 10 -15.703125 9.21875 -15.703125 L 5.5 -15.703125 L 5.5 -3.765625 Z M 9.21875 -3.765625 "/></g></g></g><g fill="#e71f69" fill-opacity="1"><g transform="translate(122.722165, 282.818653)"><g><path d="M 10.5 -19.765625 C 11.820312 -19.765625 13.066406 -19.5 14.234375 -18.96875 C 15.410156 -18.4375 16.4375 -17.710938 17.3125 -16.796875 C 18.1875 -15.878906 18.875 -14.816406 19.375 -13.609375 C 19.875 -12.398438 20.125 -11.109375 20.125 -9.734375 C 20.125 -8.378906 19.875 -7.085938 19.375 -5.859375 C 18.875 -4.628906 18.1875 -3.554688 17.3125 -2.640625 C 16.4375 -1.722656 15.410156 -0.992188 14.234375 -0.453125 C 13.066406 0.0859375 11.820312 0.359375 10.5 0.359375 C 9.1875 0.359375 7.941406 0.0859375 6.765625 -0.453125 C 5.585938 -0.992188 4.566406 -1.722656 3.703125 -2.640625 C 2.847656 -3.554688 2.164062 -4.628906 1.65625 -5.859375 C 1.15625 -7.085938 0.90625 -8.378906 0.90625 -9.734375 C 0.90625 -11.109375 1.15625 -12.398438 1.65625 -13.609375 C 2.164062 -14.816406 2.847656 -15.878906 3.703125 -16.796875 C 4.566406 -17.710938 5.585938 -18.4375 6.765625 -18.96875 C 7.941406 -19.5 9.1875 -19.765625 10.5 -19.765625 Z M 10.5 -3.796875 C 11.25 -3.796875 11.953125 -3.953125 12.609375 -4.265625 C 13.273438 -4.578125 13.851562 -5.003906 14.34375 -5.546875 C 14.84375 -6.085938 15.234375 -6.710938 15.515625 -7.421875 C 15.804688 -8.140625 15.953125 -8.910156 15.953125 -9.734375 C 15.953125 -10.554688 15.804688 -11.328125 15.515625 -12.046875 C 15.234375 -12.773438 14.84375 -13.410156 14.34375 -13.953125 C 13.851562 -14.492188 13.273438 -14.921875 12.609375 -15.234375 C 11.953125 -15.546875 11.25 -15.703125 10.5 -15.703125 C 9.75 -15.703125 9.039062 -15.546875 8.375 -15.234375 C 7.71875 -14.921875 7.140625 -14.492188 6.640625 -13.953125 C 6.148438 -13.410156 5.765625 -12.773438 5.484375 -12.046875 C 5.203125 -11.328125 5.0625 -10.554688 5.0625 -9.734375 C 5.0625 -8.910156 5.203125 -8.140625 5.484375 -7.421875 C 5.765625 -6.710938 6.148438 -6.085938 6.640625 -5.546875 C 7.140625 -5.003906 7.71875 -4.578125 8.375 -4.265625 C 9.039062 -3.953125 9.75 -3.796875 10.5 -3.796875 Z M 10.5 -3.796875 "/></g></g></g><g fill="#e71f69" fill-opacity="1"><g transform="translate(145.046097, 282.818653)"><g><path d="M 8.390625 -19.5 L 8.390625 -15.984375 L 6.9375 -15.984375 L 6.9375 -3.5 L 8.390625 -3.5 L 8.390625 0 L 1.296875 0 L 1.296875 -3.5 L 2.75 -3.5 L 2.75 -15.984375 L 1.296875 -15.984375 L 1.296875 -19.5 Z M 8.390625 -19.5 "/></g></g></g><g fill="#e71f69" fill-opacity="1"><g transform="translate(155.988296, 282.818653)"><g><path d="M 14.625 -19.5 L 18.78125 -19.5 L 18.78125 0 L 14.828125 0 L 5.4375 -12.734375 L 5.4375 0 L 1.296875 0 L 1.296875 -19.5 L 5.203125 -19.5 L 14.625 -6.6875 Z M 14.625 -19.5 "/></g></g></g><g fill="#e71f69" fill-opacity="1"><g transform="translate(177.350008, 282.818653)"><g><path d="M 13.6875 -10.03125 C 14.457031 -9.570312 15.046875 -8.984375 15.453125 -8.265625 C 15.859375 -7.554688 16.0625 -6.734375 16.0625 -5.796875 C 16.0625 -4.921875 15.847656 -4.101562 15.421875 -3.34375 C 15.003906 -2.582031 14.410156 -1.90625 13.640625 -1.3125 C 12.941406 -0.78125 12.144531 -0.375 11.25 -0.09375 C 10.363281 0.1875 9.425781 0.335938 8.4375 0.359375 C 7.445312 0.359375 6.503906 0.222656 5.609375 -0.046875 C 4.710938 -0.328125 3.914062 -0.742188 3.21875 -1.296875 C 2.175781 -2.078125 1.460938 -3.03125 1.078125 -4.15625 L 4.921875 -5.9375 C 4.921875 -5.757812 4.984375 -5.53125 5.109375 -5.25 C 5.242188 -4.976562 5.445312 -4.710938 5.71875 -4.453125 C 5.988281 -4.191406 6.34375 -3.96875 6.78125 -3.78125 C 7.226562 -3.601562 7.773438 -3.515625 8.421875 -3.515625 C 8.929688 -3.515625 9.382812 -3.578125 9.78125 -3.703125 C 10.175781 -3.835938 10.503906 -4 10.765625 -4.1875 C 11.035156 -4.382812 11.238281 -4.601562 11.375 -4.84375 C 11.507812 -5.09375 11.578125 -5.347656 11.578125 -5.609375 C 11.578125 -5.898438 11.476562 -6.171875 11.28125 -6.421875 C 11.09375 -6.679688 10.796875 -6.890625 10.390625 -7.046875 C 9.660156 -7.296875 8.882812 -7.507812 8.0625 -7.6875 C 7.25 -7.863281 6.457031 -8.082031 5.6875 -8.34375 C 4.914062 -8.613281 4.203125 -8.96875 3.546875 -9.40625 C 2.890625 -9.84375 2.367188 -10.457031 1.984375 -11.25 C 1.628906 -11.945312 1.453125 -12.6875 1.453125 -13.46875 C 1.453125 -14.351562 1.65625 -15.207031 2.0625 -16.03125 C 2.476562 -16.851562 3.046875 -17.550781 3.765625 -18.125 C 4.441406 -18.65625 5.203125 -19.0625 6.046875 -19.34375 C 6.890625 -19.625 7.78125 -19.765625 8.71875 -19.765625 C 9.65625 -19.765625 10.546875 -19.628906 11.390625 -19.359375 C 12.242188 -19.085938 13.007812 -18.6875 13.6875 -18.15625 C 14.351562 -17.65625 14.878906 -17.078125 15.265625 -16.421875 L 12.125 -14.265625 C 11.738281 -14.796875 11.253906 -15.222656 10.671875 -15.546875 C 10.097656 -15.867188 9.457031 -16.03125 8.75 -16.03125 C 7.757812 -16.03125 6.992188 -15.8125 6.453125 -15.375 C 5.910156 -14.9375 5.640625 -14.359375 5.640625 -13.640625 C 5.640625 -13.304688 5.789062 -13.007812 6.09375 -12.75 C 6.394531 -12.5 6.785156 -12.269531 7.265625 -12.0625 C 7.753906 -11.863281 8.300781 -11.6875 8.90625 -11.53125 C 9.507812 -11.375 10.109375 -11.21875 10.703125 -11.0625 C 11.304688 -10.90625 11.875 -10.742188 12.40625 -10.578125 C 12.9375 -10.421875 13.363281 -10.238281 13.6875 -10.03125 Z M 13.6875 -10.03125 "/></g></g></g><g fill="#e71f69" fill-opacity="1"><g transform="translate(195.577618, 282.818653)"><g><path d="M 8.390625 -19.5 L 8.390625 -15.984375 L 6.9375 -15.984375 L 6.9375 -3.5 L 8.390625 -3.5 L 8.390625 0 L 1.296875 0 L 1.296875 -3.5 L 2.75 -3.5 L 2.75 -15.984375 L 1.296875 -15.984375 L 1.296875 -19.5 Z M 8.390625 -19.5 "/></g></g></g><g fill="#e71f69" fill-opacity="1"><g transform="translate(206.519817, 282.818653)"><g><path d="M 10.9375 -11.03125 L 18.3125 -11.03125 L 18.3125 -3.875 C 17.21875 -2.476562 16 -1.421875 14.65625 -0.703125 C 13.320312 0.00390625 11.921875 0.359375 10.453125 0.359375 C 9.128906 0.359375 7.878906 0.0859375 6.703125 -0.453125 C 5.535156 -0.992188 4.519531 -1.722656 3.65625 -2.640625 C 2.789062 -3.554688 2.109375 -4.625 1.609375 -5.84375 C 1.109375 -7.0625 0.859375 -8.359375 0.859375 -9.734375 C 0.859375 -11.109375 1.109375 -12.398438 1.609375 -13.609375 C 2.109375 -14.816406 2.789062 -15.878906 3.65625 -16.796875 C 4.519531 -17.710938 5.535156 -18.4375 6.703125 -18.96875 C 7.878906 -19.5 9.128906 -19.765625 10.453125 -19.765625 C 11.691406 -19.765625 12.863281 -19.535156 13.96875 -19.078125 C 15.082031 -18.617188 16.164062 -17.859375 17.21875 -16.796875 L 14.796875 -13.859375 C 14.023438 -14.578125 13.300781 -15.054688 12.625 -15.296875 C 11.945312 -15.546875 11.234375 -15.671875 10.484375 -15.671875 C 9.710938 -15.671875 8.988281 -15.515625 8.3125 -15.203125 C 7.644531 -14.890625 7.0625 -14.46875 6.5625 -13.9375 C 6.070312 -13.40625 5.6875 -12.773438 5.40625 -12.046875 C 5.125 -11.328125 4.984375 -10.554688 4.984375 -9.734375 C 4.984375 -8.910156 5.125 -8.140625 5.40625 -7.421875 C 5.6875 -6.710938 6.070312 -6.085938 6.5625 -5.546875 C 7.0625 -5.003906 7.644531 -4.578125 8.3125 -4.265625 C 8.988281 -3.953125 9.710938 -3.796875 10.484375 -3.796875 C 11.160156 -3.796875 11.832031 -3.914062 12.5 -4.15625 C 13.164062 -4.40625 13.835938 -4.816406 14.515625 -5.390625 L 14.515625 -7.5 L 10.9375 -7.5 Z M 10.9375 -11.03125 "/></g></g></g><g fill="#e71f69" fill-opacity="1"><g transform="translate(227.056765, 282.818653)"><g><path d="M 14.375 -19.5 L 18.5625 -19.5 L 18.5625 0 L 14.375 0 L 14.375 -8.390625 L 5.4375 -8.390625 L 5.4375 0 L 1.296875 0 L 1.296875 -19.5 L 5.4375 -19.5 L 5.4375 -12.1875 L 14.375 -12.1875 Z M 14.375 -19.5 "/></g></g></g><g fill="#e71f69" fill-opacity="1"><g transform="translate(248.198533, 282.818653)"><g><path d="M 0.625 -19.5 L 14.734375 -19.5 L 14.734375 -15.703125 L 9.765625 -15.703125 L 9.765625 0 L 5.609375 0 L 5.609375 -15.703125 L 0.625 -15.703125 Z M 0.625 -19.5 "/></g></g></g><g fill="#e71f69" fill-opacity="1"><g transform="translate(264.859082, 282.818653)"><g><path d="M 9.40625 -6.265625 L 1.3125 -6.265625 L 1.3125 -8.859375 L 9.40625 -8.859375 Z M 9.40625 -6.265625 "/></g></g></g><g fill="#e71f69" fill-opacity="1"><g transform="translate(276.845989, 282.818653)"><g><path d="M 13.28125 -19.5 L 21.421875 0 L 16.90625 0 L 15.15625 -4.1875 L 6.875 -4.1875 L 5.140625 0 L 0.609375 0 L 8.75 -19.5 Z M 13.578125 -7.96875 L 11.03125 -14.109375 L 8.46875 -7.96875 Z M 13.578125 -7.96875 "/></g></g></g><g fill="#e71f69" fill-opacity="1"><g transform="translate(300.159639, 282.818653)"><g><path d="M 8.390625 -19.5 L 8.390625 -15.984375 L 6.9375 -15.984375 L 6.9375 -3.5 L 8.390625 -3.5 L 8.390625 0 L 1.296875 0 L 1.296875 -3.5 L 2.75 -3.5 L 2.75 -15.984375 L 1.296875 -15.984375 L 1.296875 -19.5 Z M 8.390625 -19.5 "/></g></g></g></svg>